<?xml version="1.0" encoding="UTF-8"?>
<!DOCTYPE svg PUBLIC "-//W3C//DTD SVG 1.1//EN" "http://www.w3.org/Graphics/SVG/1.1/DTD/svg11.dtd">
<svg xmlns="http://www.w3.org/2000/svg" version="1.1" width="512px" height="512px" style="shape-rendering:geometricPrecision; text-rendering:geometricPrecision; image-rendering:optimizeQuality; fill-rule:evenodd; clip-rule:evenodd" xmlns:xlink="http://www.w3.org/1999/xlink">
<g><path style="opacity:0.062" fill="#020202" d="M 145.5,42.5 C 218.834,42.3333 292.167,42.5 365.5,43C 434.823,44.3232 470.323,79.8232 472,149.5C 472.667,222.833 472.667,296.167 472,369.5C 472.351,429.792 443.018,465.126 384,475.5C 298.333,476.833 212.667,476.833 127,475.5C 67.9821,465.126 38.6488,429.792 39,369.5C 38.3333,296.167 38.3333,222.833 39,149.5C 40.8518,79.8153 76.3518,44.1486 145.5,42.5 Z"/></g>
<g><path style="opacity:0.993" fill="#f7db5e" d="M 413.5,60.5 C 412.193,61.1534 410.86,61.8201 409.5,62.5C 408.672,61.5853 407.672,60.9186 406.5,60.5C 399.179,61.6191 391.845,61.6191 384.5,60.5C 380.96,62.3119 377.627,62.3119 374.5,60.5C 367.179,61.6191 359.845,61.6191 352.5,60.5C 348.96,62.3119 345.627,62.3119 342.5,60.5C 335.179,61.6191 327.845,61.6191 320.5,60.5C 316.96,62.3119 313.627,62.3119 310.5,60.5C 303.179,61.6191 295.845,61.6191 288.5,60.5C 284.96,62.3119 281.627,62.3119 278.5,60.5C 271.179,61.6191 263.845,61.6191 256.5,60.5C 252.96,62.3119 249.627,62.3119 246.5,60.5C 239.179,61.6191 231.845,61.6191 224.5,60.5C 220.96,62.3119 217.627,62.3119 214.5,60.5C 207.179,61.6191 199.845,61.6191 192.5,60.5C 188.96,62.3119 185.627,62.3119 182.5,60.5C 175.179,61.6191 167.845,61.6191 160.5,60.5C 156.96,62.3119 153.627,62.3119 150.5,60.5C 143.179,61.6191 135.845,61.6191 128.5,60.5C 124.96,62.3119 121.627,62.3119 118.5,60.5C 111.602,61.7661 104.602,61.7661 97.5,60.5C 104.167,56.2173 111.5,53.384 119.5,52C 128.088,50.3432 136.755,49.3432 145.5,49C 181.833,48.8333 218.167,48.6667 254.5,48.5C 295.848,48.3792 337.181,48.8792 378.5,50C 391.075,50.8881 402.742,54.3881 413.5,60.5 Z"/></g>
<g><path style="opacity:1" fill="#fdde5a" d="M 97.5,60.5 C 104.602,61.7661 111.602,61.7661 118.5,60.5C 121.627,62.3119 124.96,62.3119 128.5,60.5C 135.845,61.6191 143.179,61.6191 150.5,60.5C 153.627,62.3119 156.96,62.3119 160.5,60.5C 167.845,61.6191 175.179,61.6191 182.5,60.5C 185.627,62.3119 188.96,62.3119 192.5,60.5C 199.845,61.6191 207.179,61.6191 214.5,60.5C 217.627,62.3119 220.96,62.3119 224.5,60.5C 231.845,61.6191 239.179,61.6191 246.5,60.5C 249.627,62.3119 252.96,62.3119 256.5,60.5C 263.845,61.6191 271.179,61.6191 278.5,60.5C 281.627,62.3119 284.96,62.3119 288.5,60.5C 295.845,61.6191 303.179,61.6191 310.5,60.5C 313.627,62.3119 316.96,62.3119 320.5,60.5C 327.845,61.6191 335.179,61.6191 342.5,60.5C 345.627,62.3119 348.96,62.3119 352.5,60.5C 359.845,61.6191 367.179,61.6191 374.5,60.5C 377.627,62.3119 380.96,62.3119 384.5,60.5C 391.845,61.6191 399.179,61.6191 406.5,60.5C 407.672,60.9186 408.672,61.5853 409.5,62.5C 410.86,61.8201 412.193,61.1534 413.5,60.5C 422.239,63.9064 429.572,69.2397 435.5,76.5C 315.127,76.5977 195.127,76.5977 75.5,76.5C 81.4277,69.2397 88.761,63.9064 97.5,60.5 Z"/></g>
<g><path style="opacity:1" fill="#fcdb54" d="M 75.5,76.5 C 195.127,76.5977 315.127,76.5977 435.5,76.5C 440.264,79.9284 443.93,84.2617 446.5,89.5C 319.204,89.6761 191.87,90.0094 64.5,90.5C 66.7217,84.736 70.3884,80.0693 75.5,76.5 Z"/></g>
<g><path style="opacity:1" fill="#fbd84e" d="M 446.5,89.5 C 449.358,93.8832 451.692,98.5499 453.5,103.5C 446.042,105.298 438.709,105.298 431.5,103.5C 423.636,104.152 415.803,104.818 408,105.5C 405.204,104.789 402.37,104.122 399.5,103.5C 391.636,104.152 383.803,104.818 376,105.5C 373.204,104.789 370.37,104.122 367.5,103.5C 359.636,104.152 351.803,104.818 344,105.5C 341.204,104.789 338.37,104.122 335.5,103.5C 327.636,104.152 319.803,104.818 312,105.5C 309.204,104.789 306.37,104.122 303.5,103.5C 295.636,104.152 287.803,104.818 280,105.5C 277.204,104.789 274.37,104.122 271.5,103.5C 263.636,104.152 255.803,104.818 248,105.5C 245.204,104.789 242.37,104.122 239.5,103.5C 231.636,104.152 223.803,104.818 216,105.5C 213.204,104.789 210.37,104.122 207.5,103.5C 199.636,104.152 191.803,104.818 184,105.5C 181.204,104.789 178.37,104.122 175.5,103.5C 167.636,104.152 159.803,104.818 152,105.5C 149.204,104.789 146.37,104.122 143.5,103.5C 135.636,104.152 127.803,104.818 120,105.5C 117.204,104.789 114.37,104.122 111.5,103.5C 103.636,104.152 95.8028,104.818 88,105.5C 85.2037,104.789 82.3704,104.122 79.5,103.5C 72.1368,104.83 64.8034,104.83 57.5,103.5C 59.0741,98.6805 61.4074,94.3472 64.5,90.5C 191.87,90.0094 319.204,89.6761 446.5,89.5 Z"/></g>
<g><path style="opacity:1" fill="#fbd345" d="M 57.5,103.5 C 64.8034,104.83 72.1368,104.83 79.5,103.5C 82.3704,104.122 85.2037,104.789 88,105.5C 95.8028,104.818 103.636,104.152 111.5,103.5C 114.37,104.122 117.204,104.789 120,105.5C 127.803,104.818 135.636,104.152 143.5,103.5C 146.37,104.122 149.204,104.789 152,105.5C 159.803,104.818 167.636,104.152 175.5,103.5C 178.37,104.122 181.204,104.789 184,105.5C 191.803,104.818 199.636,104.152 207.5,103.5C 210.37,104.122 213.204,104.789 216,105.5C 223.803,104.818 231.636,104.152 239.5,103.5C 242.37,104.122 245.204,104.789 248,105.5C 255.803,104.818 263.636,104.152 271.5,103.5C 274.37,104.122 277.204,104.789 280,105.5C 287.803,104.818 295.636,104.152 303.5,103.5C 306.37,104.122 309.204,104.789 312,105.5C 319.803,104.818 327.636,104.152 335.5,103.5C 338.37,104.122 341.204,104.789 344,105.5C 351.803,104.818 359.636,104.152 367.5,103.5C 370.37,104.122 373.204,104.789 376,105.5C 383.803,104.818 391.636,104.152 399.5,103.5C 402.37,104.122 405.204,104.789 408,105.5C 415.803,104.818 423.636,104.152 431.5,103.5C 438.709,105.298 446.042,105.298 453.5,103.5C 454.931,104.78 455.598,106.447 455.5,108.5C 455.782,111.91 456.449,115.243 457.5,118.5C 322.833,119.833 188.167,119.833 53.5,118.5C 54.5514,115.243 55.2181,111.91 55.5,108.5C 55.4021,106.447 56.0687,104.78 57.5,103.5 Z"/></g>
<g><path style="opacity:1" fill="#facb3b" d="M 55.5,108.5 C 55.2181,111.91 54.5514,115.243 53.5,118.5C 188.167,119.833 322.833,119.833 457.5,118.5C 456.449,115.243 455.782,111.91 455.5,108.5C 457.258,111.854 458.258,115.521 458.5,119.5C 458.5,121.833 458.5,124.167 458.5,126.5C 323.265,125.637 187.931,125.637 52.5,126.5C 52.5,124.167 52.5,121.833 52.5,119.5C 52.7424,115.521 53.7424,111.854 55.5,108.5 Z"/></g>
<g><path style="opacity:1" fill="#f9c150" d="M 52.5,119.5 C 52.5,121.833 52.5,124.167 52.5,126.5C 52.3259,128.861 51.9926,131.194 51.5,133.5C 50.5269,135.948 50.1936,138.615 50.5,141.5C 50.5,143.5 50.5,145.5 50.5,147.5C 187.167,147.5 323.833,147.5 460.5,147.5C 460.5,145.5 460.5,143.5 460.5,141.5C 460.736,138.391 460.403,135.391 459.5,132.5C 458.85,130.565 458.517,128.565 458.5,126.5C 458.5,124.167 458.5,121.833 458.5,119.5C 460.866,128.21 461.866,137.21 461.5,146.5C 461.5,147.833 461.5,149.167 461.5,150.5C 324.167,150.5 186.833,150.5 49.5,150.5C 49.5,149.167 49.5,147.833 49.5,146.5C 49.1343,137.21 50.1343,128.21 52.5,119.5 Z"/></g>
<g><path style="opacity:1" fill="#f9be41" d="M 50.5,141.5 C 187.167,141.5 323.833,141.5 460.5,141.5C 460.5,143.5 460.5,145.5 460.5,147.5C 323.833,147.5 187.167,147.5 50.5,147.5C 50.5,145.5 50.5,143.5 50.5,141.5 Z"/></g>
<g><path style="opacity:1" fill="#fabf33" d="M 459.5,132.5 C 460.403,135.391 460.736,138.391 460.5,141.5C 323.833,141.5 187.167,141.5 50.5,141.5C 50.1936,138.615 50.5269,135.948 51.5,133.5C 187.514,132.883 323.514,132.55 459.5,132.5 Z"/></g>
<g><path style="opacity:1" fill="#fac535" d="M 458.5,126.5 C 458.517,128.565 458.85,130.565 459.5,132.5C 323.514,132.55 187.514,132.883 51.5,133.5C 51.9926,131.194 52.3259,128.861 52.5,126.5C 187.931,125.637 323.265,125.637 458.5,126.5 Z"/></g>
<g><path style="opacity:1" fill="#999389" d="M 49.5,146.5 C 49.5,147.833 49.5,149.167 49.5,150.5C 186.833,150.5 324.167,150.5 461.5,150.5C 461.5,149.167 461.5,147.833 461.5,146.5C 462.833,219.167 462.833,291.833 461.5,364.5C 461.5,361.833 461.5,359.167 461.5,356.5C 461.5,323.5 461.5,290.5 461.5,257.5C 461.5,256.167 461.5,254.833 461.5,253.5C 461.5,233.833 461.5,214.167 461.5,194.5C 461.5,189.167 461.5,183.833 461.5,178.5C 461.5,172.167 461.5,165.833 461.5,159.5C 461.5,158.833 461.5,158.167 461.5,157.5C 461.5,156.833 461.5,156.167 461.5,155.5C 393.17,154.167 324.503,153.5 255.5,153.5C 186.497,153.5 117.83,154.167 49.5,155.5C 49.5,156.167 49.5,156.833 49.5,157.5C 49.5,158.167 49.5,158.833 49.5,159.5C 49.5,165.833 49.5,172.167 49.5,178.5C 49.5,182.5 49.5,186.5 49.5,190.5C 49.5,194.833 49.5,199.167 49.5,203.5C 49.5,220.167 49.5,236.833 49.5,253.5C 49.5,254.833 49.5,256.167 49.5,257.5C 49.5,290.5 49.5,323.5 49.5,356.5C 49.5,359.167 49.5,361.833 49.5,364.5C 48.1667,291.833 48.1667,219.167 49.5,146.5 Z"/></g>
<g><path style="opacity:1" fill="#a9a9a8" d="M 461.5,155.5 C 324.167,155.5 186.833,155.5 49.5,155.5C 117.83,154.167 186.497,153.5 255.5,153.5C 324.503,153.5 393.17,154.167 461.5,155.5 Z"/></g>
<g><path style="opacity:1" fill="#b7b7b6" d="M 49.5,155.5 C 186.833,155.5 324.167,155.5 461.5,155.5C 461.5,156.167 461.5,156.833 461.5,157.5C 324.167,157.5 186.833,157.5 49.5,157.5C 49.5,156.833 49.5,156.167 49.5,155.5 Z"/></g>
<g><path style="opacity:1" fill="#c4c4c3" d="M 49.5,157.5 C 186.833,157.5 324.167,157.5 461.5,157.5C 461.5,158.167 461.5,158.833 461.5,159.5C 324.167,159.5 186.833,159.5 49.5,159.5C 49.5,158.833 49.5,158.167 49.5,157.5 Z"/></g>
<g><path style="opacity:1" fill="#d2d2d0" d="M 49.5,159.5 C 186.833,159.5 324.167,159.5 461.5,159.5C 461.5,165.833 461.5,172.167 461.5,178.5C 456.833,178.5 454.5,176.167 454.5,171.5C 451.833,171.833 449.167,172.167 446.5,172.5C 445.716,177.799 442.883,179.465 438,177.5C 436.562,176.1 435.729,174.433 435.5,172.5C 432.881,172.768 430.381,172.435 428,171.5C 426.764,178.796 423.431,180.129 418,175.5C 417.667,174.167 417.333,172.833 417,171.5C 414.958,171.818 412.791,171.985 410.5,172C 409.263,175.237 407.097,177.404 404,178.5C 402.893,178.415 401.893,178.081 401,177.5C 399.562,176.1 398.729,174.433 398.5,172.5C 395.881,172.768 393.381,172.435 391,171.5C 389.764,178.796 386.431,180.129 381,175.5C 380.781,174.062 380.281,172.729 379.5,171.5C 377.253,172.374 374.92,172.708 372.5,172.5C 371.716,177.799 368.883,179.465 364,177.5C 362.562,176.1 361.729,174.433 361.5,172.5C 358.873,171.908 356.206,171.575 353.5,171.5C 352.681,178.821 349.514,180.154 344,175.5C 343.667,174.167 343.333,172.833 343,171.5C 340.619,172.435 338.119,172.768 335.5,172.5C 334.716,177.799 331.883,179.465 327,177.5C 325.872,175.655 325.372,173.655 325.5,171.5C 322.8,172.516 320.134,172.516 317.5,171.5C 315.881,178.703 312.381,180.036 307,175.5C 306.667,174.167 306.333,172.833 306,171.5C 303.619,172.435 301.119,172.768 298.5,172.5C 297.853,177.309 295.186,179.142 290.5,178C 288.945,176.417 287.778,174.584 287,172.5C 286.275,171.941 285.442,171.608 284.5,171.5C 282.895,172.43 281.395,172.43 280,171.5C 278.764,178.796 275.431,180.129 270,175.5C 269.667,174.167 269.333,172.833 269,171.5C 266.534,172.788 264.034,172.788 261.5,171.5C 260.667,173.5 259.833,175.5 259,177.5C 254.117,179.465 251.284,177.799 250.5,172.5C 247.881,172.768 245.381,172.435 243,171.5C 241.764,178.796 238.431,180.129 233,175.5C 232.667,174.167 232.333,172.833 232,171.5C 229.959,171.357 227.792,171.691 225.5,172.5C 224.052,175.455 221.885,177.455 219,178.5C 217.893,178.415 216.893,178.081 216,177.5C 214.562,176.1 213.729,174.433 213.5,172.5C 210.881,172.768 208.381,172.435 206,171.5C 204.764,178.796 201.431,180.129 196,175.5C 195.667,174.167 195.333,172.833 195,171.5C 192.568,172.45 190.068,172.45 187.5,171.5C 187.148,177.298 184.315,179.298 179,177.5C 177.562,176.1 176.729,174.433 176.5,172.5C 173.881,172.768 171.381,172.435 169,171.5C 167.764,178.796 164.431,180.129 159,175.5C 158.51,174.207 158.343,172.873 158.5,171.5C 155.833,171.833 153.167,172.167 150.5,172.5C 149.716,177.799 146.883,179.465 142,177.5C 140.562,176.1 139.729,174.433 139.5,172.5C 136.794,172.425 134.127,172.092 131.5,171.5C 130.681,178.821 127.514,180.154 122,175.5C 121.667,174.167 121.333,172.833 121,171.5C 118.619,172.435 116.119,172.768 113.5,172.5C 112.716,177.799 109.883,179.465 105,177.5C 103.331,175.831 102.498,173.831 102.5,171.5C 99.8938,172.136 97.3938,172.136 95,171.5C 93.7643,178.796 90.431,180.129 85,175.5C 84.6667,174.167 84.3333,172.833 84,171.5C 81.6194,172.435 79.1194,172.768 76.5,172.5C 75.7162,177.799 72.8829,179.465 68,177.5C 66.5619,176.1 65.7286,174.433 65.5,172.5C 62.8728,171.908 60.2062,171.575 57.5,171.5C 57.3489,176.649 54.6822,178.982 49.5,178.5C 49.5,172.167 49.5,165.833 49.5,159.5 Z"/></g>
<g><path style="opacity:1" fill="#e9e9e7" d="M 461.5,178.5 C 461.5,183.833 461.5,189.167 461.5,194.5C 460.596,193.791 460.263,192.791 460.5,191.5C 460.5,189.167 460.5,186.833 460.5,184.5C 323.93,184.832 187.43,184.499 51,183.5C 50.8138,186.036 50.3138,188.369 49.5,190.5C 49.5,186.5 49.5,182.5 49.5,178.5C 54.6822,178.982 57.3489,176.649 57.5,171.5C 60.2062,171.575 62.8728,171.908 65.5,172.5C 65.7286,174.433 66.5619,176.1 68,177.5C 72.8829,179.465 75.7162,177.799 76.5,172.5C 79.1194,172.768 81.6194,172.435 84,171.5C 84.3333,172.833 84.6667,174.167 85,175.5C 90.431,180.129 93.7643,178.796 95,171.5C 97.3938,172.136 99.8938,172.136 102.5,171.5C 102.498,173.831 103.331,175.831 105,177.5C 109.883,179.465 112.716,177.799 113.5,172.5C 116.119,172.768 118.619,172.435 121,171.5C 121.333,172.833 121.667,174.167 122,175.5C 127.514,180.154 130.681,178.821 131.5,171.5C 134.127,172.092 136.794,172.425 139.5,172.5C 139.729,174.433 140.562,176.1 142,177.5C 146.883,179.465 149.716,177.799 150.5,172.5C 153.167,172.167 155.833,171.833 158.5,171.5C 158.343,172.873 158.51,174.207 159,175.5C 164.431,180.129 167.764,178.796 169,171.5C 171.381,172.435 173.881,172.768 176.5,172.5C 176.729,174.433 177.562,176.1 179,177.5C 184.315,179.298 187.148,177.298 187.5,171.5C 190.068,172.45 192.568,172.45 195,171.5C 195.333,172.833 195.667,174.167 196,175.5C 201.431,180.129 204.764,178.796 206,171.5C 208.381,172.435 210.881,172.768 213.5,172.5C 213.729,174.433 214.562,176.1 216,177.5C 216.893,178.081 217.893,178.415 219,178.5C 221.885,177.455 224.052,175.455 225.5,172.5C 227.792,171.691 229.959,171.357 232,171.5C 232.333,172.833 232.667,174.167 233,175.5C 238.431,180.129 241.764,178.796 243,171.5C 245.381,172.435 247.881,172.768 250.5,172.5C 251.284,177.799 254.117,179.465 259,177.5C 259.833,175.5 260.667,173.5 261.5,171.5C 264.034,172.788 266.534,172.788 269,171.5C 269.333,172.833 269.667,174.167 270,175.5C 275.431,180.129 278.764,178.796 280,171.5C 281.395,172.43 282.895,172.43 284.5,171.5C 285.442,171.608 286.275,171.941 287,172.5C 287.778,174.584 288.945,176.417 290.5,178C 295.186,179.142 297.853,177.309 298.5,172.5C 301.119,172.768 303.619,172.435 306,171.5C 306.333,172.833 306.667,174.167 307,175.5C 312.381,180.036 315.881,178.703 317.5,171.5C 320.134,172.516 322.8,172.516 325.5,171.5C 325.372,173.655 325.872,175.655 327,177.5C 331.883,179.465 334.716,177.799 335.5,172.5C 338.119,172.768 340.619,172.435 343,171.5C 343.333,172.833 343.667,174.167 344,175.5C 349.514,180.154 352.681,178.821 353.5,171.5C 356.206,171.575 358.873,171.908 361.5,172.5C 361.729,174.433 362.562,176.1 364,177.5C 368.883,179.465 371.716,177.799 372.5,172.5C 374.92,172.708 377.253,172.374 379.5,171.5C 380.281,172.729 380.781,174.062 381,175.5C 386.431,180.129 389.764,178.796 391,171.5C 393.381,172.435 395.881,172.768 398.5,172.5C 398.729,174.433 399.562,176.1 401,177.5C 401.893,178.081 402.893,178.415 404,178.5C 407.097,177.404 409.263,175.237 410.5,172C 412.791,171.985 414.958,171.818 417,171.5C 417.333,172.833 417.667,174.167 418,175.5C 423.431,180.129 426.764,178.796 428,171.5C 430.381,172.435 432.881,172.768 435.5,172.5C 435.729,174.433 436.562,176.1 438,177.5C 442.883,179.465 445.716,177.799 446.5,172.5C 449.167,172.167 451.833,171.833 454.5,171.5C 454.5,176.167 456.833,178.5 461.5,178.5 Z"/></g>
<g><path style="opacity:1" fill="#f1f0ef" d="M 460.5,191.5 C 324.097,192.327 187.597,192.327 51,191.5C 50.8238,195.688 50.3238,199.688 49.5,203.5C 49.5,199.167 49.5,194.833 49.5,190.5C 50.3138,188.369 50.8138,186.036 51,183.5C 187.43,184.499 323.93,184.832 460.5,184.5C 460.5,186.833 460.5,189.167 460.5,191.5 Z"/></g>
<g><path style="opacity:1" fill="#f7f6f4" d="M 460.5,191.5 C 460.263,192.791 460.596,193.791 461.5,194.5C 461.5,214.167 461.5,233.833 461.5,253.5C 324.167,253.5 186.833,253.5 49.5,253.5C 49.5,236.833 49.5,220.167 49.5,203.5C 50.3238,199.688 50.8238,195.688 51,191.5C 187.597,192.327 324.097,192.327 460.5,191.5 Z"/></g>
<g><path style="opacity:1" fill="#fafaf7" d="M 50.5,204.5 C 51.404,205.209 51.7373,206.209 51.5,207.5C 187.737,207.832 323.903,207.499 460,206.5C 460.5,221.83 460.667,237.163 460.5,252.5C 323.833,252.5 187.167,252.5 50.5,252.5C 50.5,236.5 50.5,220.5 50.5,204.5 Z"/></g>
<g><path style="opacity:1" fill="#dcdbda" d="M 49.5,253.5 C 186.833,253.5 324.167,253.5 461.5,253.5C 461.5,254.833 461.5,256.167 461.5,257.5C 324.167,257.5 186.833,257.5 49.5,257.5C 49.5,256.167 49.5,254.833 49.5,253.5 Z"/></g>
<g><path style="opacity:1" fill="#f8f8f4" d="M 49.5,257.5 C 186.833,257.5 324.167,257.5 461.5,257.5C 461.5,290.5 461.5,323.5 461.5,356.5C 324.167,356.5 186.833,356.5 49.5,356.5C 49.5,323.5 49.5,290.5 49.5,257.5 Z"/></g>
<g><path style="opacity:1" fill="#deddda" d="M 49.5,356.5 C 186.833,356.5 324.167,356.5 461.5,356.5C 461.5,359.167 461.5,361.833 461.5,364.5C 461.806,367.385 461.473,370.052 460.5,372.5C 460.5,368.833 460.5,365.167 460.5,361.5C 323.833,361.5 187.167,361.5 50.5,361.5C 50.5,365.167 50.5,368.833 50.5,372.5C 49.5269,370.052 49.1936,367.385 49.5,364.5C 49.5,361.833 49.5,359.167 49.5,356.5 Z"/></g>
<g><path style="opacity:1" fill="#f5f5f0" d="M 460.5,372.5 C 458.555,416.598 436.555,445.098 394.5,458C 386.908,459.561 379.241,460.561 371.5,461C 292.167,461.667 212.833,461.667 133.5,461C 91.6665,456.852 64.8332,434.685 53,394.5C 51.1845,387.275 50.3512,379.941 50.5,372.5C 50.5,368.833 50.5,365.167 50.5,361.5C 187.167,361.5 323.833,361.5 460.5,361.5C 460.5,365.167 460.5,368.833 460.5,372.5 Z"/></g>
</svg>
